<?xml version="1.0" encoding="UTF-8"?>
<svg width="206px" height="82px" viewBox="0 0 206 82" version="1.1" xmlns="http://www.w3.org/2000/svg" xmlns:xlink="http://www.w3.org/1999/xlink">
    <title>80%</title>
    <g id="Page-1" stroke="none" stroke-width="1" fill="none" fill-rule="evenodd">
        <g id="Landing-Page" transform="translate(-1033, -1004)" fill="#5A4C4C">
            <g id="80%" transform="translate(1033, 1004)">
                <path d="M6.82720953,74.9244147 C2.27573651,70.2439242 0,64.5578595 0,57.8662207 C0,53.4051282 1.01042701,49.3645485 3.03128103,45.7444816 C5.05213505,42.1244147 8.01059252,39.400223 11.9066534,37.5719064 C8.08341609,35.0122631 5.59831182,32.2423634 4.45134062,29.2622074 C3.30436941,26.2820513 2.73088381,23.4938685 2.73088381,20.8976589 C2.73088381,15.1201784 4.89738497,10.1928651 9.23038729,6.11571906 C13.5633896,2.03857302 19.6805693,0 27.5819265,0 C35.4832837,0 41.6004634,2.03857302 45.9334657,6.11571906 C50.2664681,10.1928651 52.4329692,15.1201784 52.4329692,20.8976589 C52.4329692,23.4938685 51.8594836,26.2820513 50.7125124,29.2622074 C49.5655412,32.2423634 47.0804369,34.8294314 43.2571996,37.0234114 C47.1532605,39.2173913 50.0844091,42.1244147 52.0506455,45.7444816 C54.0168818,49.3645485 55,53.4051282 55,57.8662207 C55,64.5578595 52.5331016,70.2530658 47.5993049,74.9518395 C42.6655081,79.6506132 35.774578,82 26.9265144,82 C18.0784508,82 11.3786826,79.6414716 6.82720953,74.9244147 Z M16.1668322,56.8240803 C16.1668322,60.7366778 17.1772592,63.7716834 19.1981132,65.929097 C21.2189672,68.0865106 24.0135717,69.1652174 27.5819265,69.1652174 C31.1502814,69.1652174 33.9448858,68.0865106 35.9657398,65.929097 C37.9865938,63.7716834 38.9970209,60.7366778 38.9970209,56.8240803 C38.9970209,52.7652174 37.968388,49.6845039 35.9111221,47.5819398 C33.8538563,45.4793757 31.0774578,44.4280936 27.5819265,44.4280936 C24.0863952,44.4280936 21.3099967,45.4793757 19.2527309,47.5819398 C17.1954651,49.6845039 16.1668322,52.7652174 16.1668322,56.8240803 Z M20.2631579,29.7284281 C22.0109235,31.5567447 24.4505131,32.470903 27.5819265,32.470903 C30.7497517,32.470903 33.1984442,31.5567447 34.928004,29.7284281 C36.6575637,27.9001115 37.5223436,25.5415831 37.5223436,22.6528428 C37.5223436,19.5081382 36.6575637,17.0490524 34.928004,15.2755853 C33.1984442,13.5021182 30.7497517,12.6153846 27.5819265,12.6153846 C24.4505131,12.6153846 22.0018206,13.5021182 20.2358491,15.2755853 C18.4698775,17.0490524 17.5868918,19.5081382 17.5868918,22.6528428 C17.5868918,25.5415831 18.4789805,27.9001115 20.2631579,29.7284281 Z" id="Shape" fill-rule="nonzero"></path>
                <path d="M83.5,82 C73.3433333,82 66.2208333,78.4554367 62.1325,71.3663102 C58.0441667,64.2771836 56,54.1733512 56,41.0548128 C56,27.9362745 58.0441667,17.8141711 62.1325,10.6885027 C66.2208333,3.56283422 73.3433333,0 83.5,0 C93.6566667,0 100.788333,3.56283422 104.895,10.6885027 C108.965,17.8141711 111,27.9362745 111,41.0548128 C111,54.1733512 108.955833,64.2771836 104.8675,71.3663102 C100.779167,78.4554367 93.6566667,82 83.5,82 Z M92.685,61.9933155 C94.115,57.1697861 94.83,50.1902852 94.83,41.0548128 C94.83,31.4808378 94.1058333,24.3917112 92.6575,19.7874332 C91.2091667,15.1831551 88.1566667,12.881016 83.5,12.881016 C78.8433333,12.881016 75.7633333,15.1831551 74.26,19.7874332 C72.7566667,24.3917112 72.005,31.4808378 72.005,41.0548128 C72.005,50.1902852 72.7566667,57.1789216 74.26,62.0207219 C75.7633333,66.8625223 78.8433333,69.2834225 83.5,69.2834225 C88.1566667,69.2834225 91.2183333,66.8533868 92.685,61.9933155 Z" id="Shape" fill-rule="nonzero"></path>
                <path d="M165.244755,61.2600806 C165.244755,55.6350806 167.235043,50.8447581 171.215618,46.8891129 C175.196193,42.9697581 179.998446,41.0100806 185.622378,41.0100806 C191.246309,41.0100806 196.048563,42.9879032 200.029138,46.9435484 C204.009713,50.8991935 206,55.671371 206,61.2600806 C206,66.8487903 204.009713,71.6209677 200.029138,75.5766129 C196.048563,79.5322581 191.246309,81.5100806 185.622378,81.5100806 C179.998446,81.5100806 175.196193,79.5322581 171.215618,75.5766129 C167.235043,71.6209677 165.244755,66.8487903 165.244755,61.2600806 Z M117.970862,35.9475806 C113.990287,31.9919355 112,27.2197581 112,21.6310484 C112,16.0423387 113.990287,11.2701613 117.970862,7.31451613 C121.951437,3.35887097 126.753691,1.38104839 132.377622,1.38104839 C138.001554,1.38104839 142.803807,3.35887097 146.784382,7.31451613 C150.764957,11.2701613 152.755245,16.0423387 152.755245,21.6310484 C152.755245,27.2197581 150.774087,31.9919355 146.811772,35.9475806 C142.849456,39.9032258 138.038073,41.8810484 132.377622,41.8810484 C126.753691,41.8810484 121.951437,39.9032258 117.970862,35.9475806 Z M140.977855,82 L132.487179,82 L176.912587,1 L185.238928,1 L140.977855,82 Z M179.487179,67.3568548 C181.167055,69.0625 183.212121,69.9153226 185.622378,69.9153226 C188.032634,69.9153226 190.08683,69.0715726 191.784965,67.3840726 C193.4831,65.6965726 194.332168,63.6552419 194.332168,61.2600806 C194.332168,58.8649194 193.4831,56.8235887 191.784965,55.1360887 C190.08683,53.4485887 188.032634,52.6048387 185.622378,52.6048387 C183.212121,52.6048387 181.157925,53.4485887 179.45979,55.1360887 C177.761655,56.8235887 176.912587,58.8649194 176.912587,61.2600806 C176.912587,63.6552419 177.770785,65.6875 179.487179,67.3568548 Z M126.242424,27.7278226 C127.9223,29.4334677 129.967366,30.2862903 132.377622,30.2862903 C134.787879,30.2862903 136.842075,29.4425403 138.54021,27.7550403 C140.238345,26.0675403 141.087413,24.0262097 141.087413,21.6310484 C141.087413,19.2358871 140.238345,17.1945565 138.54021,15.5070565 C136.842075,13.8195565 134.787879,12.9758065 132.377622,12.9758065 C129.967366,12.9758065 127.91317,13.8195565 126.215035,15.5070565 C124.5169,17.1945565 123.667832,19.2358871 123.667832,21.6310484 C123.667832,24.0262097 124.52603,26.0584677 126.242424,27.7278226 Z" id="Shape" fill-rule="nonzero"></path>
            </g>
        </g>
    </g>
</svg>