<?xml version="1.0" encoding="UTF-8"?>
<svg width="128px" height="115px" viewBox="0 0 128 115" version="1.1" xmlns="http://www.w3.org/2000/svg" xmlns:xlink="http://www.w3.org/1999/xlink">
    <title>script</title>
    <defs>
        <radialGradient cx="28.9813702%" cy="31.7518029%" fx="28.9813702%" fy="31.7518029%" r="55.8875511%" gradientTransform="translate(0.2898, 0.3175), rotate(46.902), scale(1, 1.0056), translate(-0.2898, -0.3175)" id="radialGradient-1">
            <stop stop-color="#FFF3EE" offset="0%"></stop>
            <stop stop-color="#C2103E" offset="30.7501093%"></stop>
            <stop stop-color="#5A1D1A" offset="100%"></stop>
        </radialGradient>
        <linearGradient x1="50%" y1="0%" x2="50%" y2="100%" id="linearGradient-2">
            <stop stop-color="#B72D76" offset="0%"></stop>
            <stop stop-color="#F7C0DD" offset="100%"></stop>
        </linearGradient>
    </defs>
    <g id="Page-1" stroke="none" stroke-width="1" fill="none" fill-rule="evenodd">
        <g id="Landing-Page" transform="translate(-487, -987)">
            <g id="script" transform="translate(487, 987)">
                <circle id="Oval-Copy-5" stroke="url(#linearGradient-2)" stroke-width="3" fill="url(#radialGradient-1)" cx="60.5" cy="57.5" r="24"></circle>
                <circle id="Oval-Copy-4" stroke="url(#linearGradient-2)" fill="url(#radialGradient-1)" cx="23" cy="57" r="5.5"></circle>
                <circle id="Oval-Copy-3" stroke="url(#linearGradient-2)" fill="url(#radialGradient-1)" cx="97" cy="57" r="5.5"></circle>
                <g id="&lt;script&gt;-&lt;/script&gt;" transform="translate(0, -8)" fill="#5A4C4C" fill-rule="nonzero">
                    <polygon id="Path" points="19.9384766 14.4394531 19.9384766 19.0712891 5.9765625 24.0019531 19.9384766 28.9492188 19.9384766 33.5644531 0.381835938 26.1269531 0.381835938 21.8769531"></polygon>
                    <path d="M32.7227394,15.734375 C34.139406,16.6419271 34.9528826,18.202474 35.163169,20.4160156 L30.4317237,20.4160156 C30.3653175,19.8072917 30.193768,19.3258464 29.9170753,18.9716797 C29.396893,18.3297526 28.5114763,18.0087891 27.2608253,18.0087891 C26.2315284,18.0087891 25.4982927,18.1692708 25.0611183,18.4902344 C24.6239438,18.8111979 24.4053565,19.1875 24.4053565,19.6191406 C24.4053565,20.1614583 24.6377784,20.554362 25.1026222,20.7978516 C25.5674659,21.0524089 27.2110206,21.4895833 30.0332862,22.109375 C31.9147967,22.5520833 33.3259295,23.2216797 34.2666847,24.1181641 C35.1963722,25.0257161 35.6612159,26.1601562 35.6612159,27.5214844 C35.6612159,29.3144531 34.9943865,30.7781576 33.6607276,31.9125977 C32.3270688,33.0470378 30.2657081,33.6142578 27.4766456,33.6142578 C24.6322446,33.6142578 22.5321469,33.0138346 21.1763526,31.8129883 C19.8205584,30.6121419 19.1426612,29.0820312 19.1426612,27.2226562 L23.9405128,27.2226562 C24.0401222,28.0638021 24.2559425,28.6614583 24.5879737,29.015625 C25.1745623,29.6464844 26.2591977,29.9619141 27.84188,29.9619141 C28.7715675,29.9619141 29.510337,29.8235677 30.0581886,29.546875 C30.6060401,29.2701823 30.8799659,28.8551432 30.8799659,28.3017578 C30.8799659,27.7705078 30.6586118,27.3665365 30.2159034,27.0898438 C29.7731951,26.813151 28.1296404,26.3372396 25.2852394,25.6621094 C23.2377133,25.1529948 21.7933774,24.5166016 20.9522315,23.7529297 C20.1110857,23.0003255 19.6905128,21.9156901 19.6905128,20.4990234 C19.6905128,18.8277995 20.3462745,17.3917643 21.657798,16.190918 C22.9693214,14.9900716 24.8148618,14.3896484 27.194419,14.3896484 C29.4522315,14.3896484 31.295005,14.8378906 32.7227394,15.734375 Z" id="Path"></path>
                    <path d="M53.0109084,21.3955078 L48.1632522,21.3955078 C48.0747105,20.7203776 47.8478225,20.1116536 47.4825881,19.5693359 C46.9513381,18.8388672 46.1267938,18.4736328 45.0089553,18.4736328 C43.4152053,18.4736328 42.325036,19.264974 41.7384475,20.8476562 C41.4285516,21.6888021 41.2736037,22.8066406 41.2736037,24.2011719 C41.2736037,25.5292969 41.4285516,26.5973307 41.7384475,27.4052734 C42.3029006,28.9104818 43.3654006,29.6630859 44.9259475,29.6630859 C46.0327183,29.6630859 46.8185256,29.3642578 47.2833693,28.7666016 C47.7482131,28.1689453 48.0304397,27.3942057 48.130049,26.4423828 L52.9611037,26.4423828 C52.8504266,27.8811849 52.3302443,29.242513 51.4005568,30.5263672 C49.9174839,32.5960286 47.7205438,33.6308594 44.8097365,33.6308594 C41.8989292,33.6308594 39.7573277,32.7675781 38.3849318,31.0410156 C37.012536,29.3144531 36.3263381,27.0732422 36.3263381,24.3173828 C36.3263381,21.2073568 37.0844761,18.7890625 38.6007522,17.0625 C40.1170282,15.3359375 42.2088251,14.4726562 44.8761428,14.4726562 C47.145023,14.4726562 49.0016311,14.9817708 50.445967,16 C51.8903029,17.0182292 52.7452834,18.8167318 53.0109084,21.3955078 Z" id="Path"></path>
                    <path d="M63.5539603,19.2705078 C61.6503144,19.2705078 60.3719941,19.8902995 59.7189993,21.1298828 C59.353765,21.8271484 59.1711478,22.9007161 59.1711478,24.3505859 L59.1711478,33 L54.4064993,33 L54.4064993,14.9042969 L58.9221243,14.9042969 L58.9221243,18.0585938 C59.6525931,16.8522135 60.2889863,16.0276693 60.831304,15.5849609 C61.7167207,14.8434245 62.8677624,14.4726562 64.284429,14.4726562 C64.3729707,14.4726562 64.4476777,14.4754232 64.5085501,14.480957 C64.5694225,14.4864909 64.7050019,14.4947917 64.9152884,14.5058594 L64.9152884,19.3535156 C64.6164603,19.3203125 64.3508353,19.2981771 64.1184134,19.2871094 C63.8859915,19.2760417 63.6978405,19.2705078 63.5539603,19.2705078 Z" id="Path"></path>
                    <path d="M70.7434965,14.9042969 L70.7434965,33 L65.9456449,33 L65.9456449,14.9042969 L70.7434965,14.9042969 Z M70.7434965,8.37988281 L70.7434965,12.7460938 L65.9456449,12.7460938 L65.9456449,8.37988281 L70.7434965,8.37988281 Z" id="Shape"></path>
                    <path d="M88.6742437,16.8466797 C90.1351812,18.4072266 90.8656499,20.6982422 90.8656499,23.7197266 C90.8656499,26.9072266 90.1490158,29.3365885 88.7157476,31.0078125 C87.2824794,32.6790365 85.436939,33.5146484 83.1791265,33.5146484 C81.7403244,33.5146484 80.5450119,33.1549479 79.593189,32.4355469 C79.0730067,32.0371094 78.5638921,31.4560547 78.0658452,30.6923828 L78.0658452,40.1220703 L73.3842046,40.1220703 L73.3842046,14.9042969 L77.9164312,14.9042969 L77.9164312,17.5771484 C78.4255458,16.7913411 78.9678635,16.1715495 79.5433843,15.7177734 C80.5948166,14.9098307 81.8454676,14.5058594 83.2953374,14.5058594 C85.4092697,14.5058594 87.2022385,15.2861328 88.6742437,16.8466797 Z M85.9847906,23.9521484 C85.9847906,22.5576172 85.6665939,21.3235677 85.0302007,20.25 C84.3938075,19.1764323 83.3617437,18.6396484 81.9340093,18.6396484 C80.2185145,18.6396484 79.0398036,19.453125 78.3978765,21.0800781 C78.0658452,21.9433594 77.8998296,23.0390625 77.8998296,24.3671875 C77.8998296,26.4700521 78.4587489,27.9475911 79.5765874,28.7998047 C80.2406499,29.2978516 81.0264572,29.546875 81.9340093,29.546875 C83.2510666,29.546875 84.2554611,29.0377604 84.9471929,28.0195312 C85.6389247,27.0013021 85.9847906,25.6455078 85.9847906,23.9521484 Z" id="Shape"></path>
                    <path d="M100.761241,29.6298828 L100.761241,33.1660156 L98.5200299,33.2490234 C96.2843528,33.3264974 94.7570091,32.9391276 93.9379987,32.0869141 C93.4067487,31.5445964 93.1411237,30.7089844 93.1411237,29.5800781 L93.1411237,18.4404297 L90.6176862,18.4404297 L90.6176862,15.0703125 L93.1411237,15.0703125 L93.1411237,10.0234375 L97.8227643,10.0234375 L97.8227643,15.0703125 L100.761241,15.0703125 L100.761241,18.4404297 L97.8227643,18.4404297 L97.8227643,28.0029297 C97.8227643,28.7444661 97.9168398,29.206543 98.1049909,29.3891602 C98.2931419,29.5717773 98.8686627,29.6630859 99.8315534,29.6630859 C99.9754336,29.6630859 100.127615,29.660319 100.288096,29.6547852 C100.448578,29.6492513 100.606293,29.6409505 100.761241,29.6298828 Z" id="Path"></path>
                    <polygon id="Path" points="114.14316 24.0019531 100.164644 19.0712891 100.164644 14.4394531 119.721285 21.9101562 119.721285 26.1269531 100.164644 33.5644531 100.164644 28.9492188"></polygon>
                    <polygon id="Path" points="19.9384766 96.4394531 19.9384766 101.071289 5.9765625 106.001953 19.9384766 110.949219 19.9384766 115.564453 0.381835938 108.126953 0.381835938 103.876953"></polygon>
                    <polygon id="Path" points="16.1875831 115 25.6670753 89.7822266 29.6016456 89.7822266 20.0889503 115"></polygon>
                    <path d="M40.3605178,97.734375 C41.7771845,98.6419271 42.590661,100.202474 42.8009475,102.416016 L38.0695022,102.416016 C38.0030959,101.807292 37.8315464,101.325846 37.5548537,100.97168 C37.0346714,100.329753 36.1492548,100.008789 34.8986037,100.008789 C33.8693068,100.008789 33.1360712,100.169271 32.6988967,100.490234 C32.2617222,100.811198 32.043135,101.1875 32.043135,101.619141 C32.043135,102.161458 32.2755568,102.554362 32.7404006,102.797852 C33.2052443,103.052409 34.848799,103.489583 37.6710647,104.109375 C39.5525751,104.552083 40.9637079,105.22168 41.9044631,106.118164 C42.8341506,107.025716 43.2989943,108.160156 43.2989943,109.521484 C43.2989943,111.314453 42.6321649,112.778158 41.2985061,113.912598 C39.9648472,115.047038 37.9034865,115.614258 35.114424,115.614258 C32.270023,115.614258 30.1699253,115.013835 28.8141311,113.812988 C27.4583368,112.612142 26.7804397,111.082031 26.7804397,109.222656 L31.5782912,109.222656 C31.6779006,110.063802 31.8937209,110.661458 32.2257522,111.015625 C32.8123407,111.646484 33.8969761,111.961914 35.4796584,111.961914 C36.4093459,111.961914 37.1481154,111.823568 37.695967,111.546875 C38.2438186,111.270182 38.5177443,110.855143 38.5177443,110.301758 C38.5177443,109.770508 38.2963902,109.366536 37.8536818,109.089844 C37.4109735,108.813151 35.7674188,108.33724 32.9230178,107.662109 C30.8754917,107.152995 29.4311558,106.516602 28.59001,105.75293 C27.7488641,105.000326 27.3282912,103.91569 27.3282912,102.499023 C27.3282912,100.827799 27.9840529,99.3917643 29.2955764,98.190918 C30.6070998,96.9900716 32.4526402,96.3896484 34.8321975,96.3896484 C37.09001,96.3896484 38.9327834,96.8378906 40.3605178,97.734375 Z" id="Path"></path>
                    <path d="M60.6486868,103.395508 L55.8010306,103.395508 C55.7124889,102.720378 55.4856009,102.111654 55.1203665,101.569336 C54.5891165,100.838867 53.7645723,100.473633 52.6467337,100.473633 C51.0529837,100.473633 49.9628144,101.264974 49.3762259,102.847656 C49.0663301,103.688802 48.9113821,104.806641 48.9113821,106.201172 C48.9113821,107.529297 49.0663301,108.597331 49.3762259,109.405273 C49.940679,110.910482 51.003179,111.663086 52.5637259,111.663086 C53.6704967,111.663086 54.456304,111.364258 54.9211478,110.766602 C55.3859915,110.168945 55.6682181,109.394206 55.7678275,108.442383 L60.5988821,108.442383 C60.4882051,109.881185 59.9680228,111.242513 59.0383353,112.526367 C57.5552624,114.596029 55.3583223,115.630859 52.447515,115.630859 C49.5367077,115.630859 47.3951061,114.767578 46.0227103,113.041016 C44.6503144,111.314453 43.9641165,109.073242 43.9641165,106.317383 C43.9641165,103.207357 44.7222545,100.789062 46.2385306,99.0625 C47.7548066,97.3359375 49.8466035,96.4726562 52.5139212,96.4726562 C54.7828014,96.4726562 56.6394095,96.9817708 58.0837454,98 C59.5280814,99.0182292 60.3830618,100.816732 60.6486868,103.395508 Z" id="Path"></path>
                    <path d="M71.1917387,101.270508 C69.2880929,101.270508 68.0097726,101.890299 67.3567778,103.129883 C66.9915434,103.827148 66.8089262,104.900716 66.8089262,106.350586 L66.8089262,115 L62.0442778,115 L62.0442778,96.9042969 L66.5599028,96.9042969 L66.5599028,100.058594 C67.2903715,98.8522135 67.9267647,98.0276693 68.4690824,97.5849609 C69.3544991,96.8434245 70.5055408,96.4726562 71.9222074,96.4726562 C72.0107491,96.4726562 72.0854561,96.4754232 72.1463285,96.480957 C72.2072009,96.4864909 72.3427804,96.4947917 72.5530668,96.5058594 L72.5530668,101.353516 C72.2542387,101.320312 71.9886137,101.298177 71.7561918,101.287109 C71.5237699,101.276042 71.3356189,101.270508 71.1917387,101.270508 Z" id="Path"></path>
                    <path d="M78.3812749,96.9042969 L78.3812749,115 L73.5834234,115 L73.5834234,96.9042969 L78.3812749,96.9042969 Z M78.3812749,90.3798828 L78.3812749,94.7460938 L73.5834234,94.7460938 L73.5834234,90.3798828 L78.3812749,90.3798828 Z" id="Shape"></path>
                    <path d="M96.3120221,98.8466797 C97.7729596,100.407227 98.5034284,102.698242 98.5034284,105.719727 C98.5034284,108.907227 97.7867942,111.336589 96.353526,113.007812 C94.9202578,114.679036 93.0747174,115.514648 90.8169049,115.514648 C89.3781028,115.514648 88.1827903,115.154948 87.2309674,114.435547 C86.7107851,114.037109 86.2016705,113.456055 85.7036237,112.692383 L85.7036237,122.12207 L81.021983,122.12207 L81.021983,96.9042969 L85.5542096,96.9042969 L85.5542096,99.5771484 C86.0633242,98.7913411 86.6056419,98.1715495 87.1811627,97.7177734 C88.232595,96.9098307 89.4832461,96.5058594 90.9331159,96.5058594 C93.0470481,96.5058594 94.8400169,97.2861328 96.3120221,98.8466797 Z M93.622569,105.952148 C93.622569,104.557617 93.3043724,103.323568 92.6679791,102.25 C92.0315859,101.176432 90.9995221,100.639648 89.5717877,100.639648 C87.8562929,100.639648 86.677582,101.453125 86.0356549,103.080078 C85.7036237,103.943359 85.537608,105.039062 85.537608,106.367188 C85.537608,108.470052 86.0965273,109.947591 87.2143659,110.799805 C87.8784284,111.297852 88.6642356,111.546875 89.5717877,111.546875 C90.888845,111.546875 91.8932396,111.03776 92.5849713,110.019531 C93.2767031,109.001302 93.622569,107.645508 93.622569,105.952148 Z" id="Shape"></path>
                    <path d="M108.399019,111.629883 L108.399019,115.166016 L106.157808,115.249023 C103.922131,115.326497 102.394788,114.939128 101.575777,114.086914 C101.044527,113.544596 100.778902,112.708984 100.778902,111.580078 L100.778902,100.44043 L98.2554646,100.44043 L98.2554646,97.0703125 L100.778902,97.0703125 L100.778902,92.0234375 L105.460543,92.0234375 L105.460543,97.0703125 L108.399019,97.0703125 L108.399019,100.44043 L105.460543,100.44043 L105.460543,110.00293 C105.460543,110.744466 105.554618,111.206543 105.742769,111.38916 C105.93092,111.571777 106.506441,111.663086 107.469332,111.663086 C107.613212,111.663086 107.765393,111.660319 107.925875,111.654785 C108.086357,111.649251 108.244071,111.640951 108.399019,111.629883 Z" id="Path"></path>
                    <polygon id="Path" points="121.780938 106.001953 107.802423 101.071289 107.802423 96.4394531 127.359063 103.910156 127.359063 108.126953 107.802423 115.564453 107.802423 110.949219"></polygon>
                </g>
            </g>
        </g>
    </g>
</svg>