<?xml version="1.0" encoding="UTF-8"?>
<svg width="169px" height="119px" viewBox="0 0 169 119" version="1.1" xmlns="http://www.w3.org/2000/svg" xmlns:xlink="http://www.w3.org/1999/xlink">
    <title>Start</title>
    <g id="Page-1" stroke="none" stroke-width="1" fill="none" fill-rule="evenodd">
        <g id="Landing-Page" transform="translate(-776, -986)">
            <g id="Start" transform="translate(776, 985)">
                <g id="$" transform="translate(56, 25)" fill="#5A4C4C" fill-rule="nonzero">
                    <path d="M18.6914062,57.0249023 C13.2822266,55.4389648 9.46606445,53.2299805 7.24291992,50.3979492 C5.01977539,47.565918 3.90820312,44.1533203 3.90820312,40.1601562 C3.90820312,37.5263672 4.34008789,35.1333008 5.20385742,32.980957 C6.06762695,30.8286133 7.27832031,28.9736328 8.8359375,27.4160156 C10.8466797,25.4052734 13.0839844,24.0175781 15.5478516,23.2529297 C17.0488281,22.7714844 19.2436523,22.4174805 22.1323242,22.190918 L22.1323242,16.5410156 L26.1679688,16.5410156 L26.1679688,22.2758789 C30.7841797,22.644043 34.4091797,23.7768555 37.0429688,25.6743164 C41.8291016,28.7045898 44.3071289,33.6181641 44.4770508,40.4150391 L33.3046875,40.4150391 C33.078125,37.8945312 32.6533203,36.0537109 32.0302734,34.8925781 C30.9541016,32.8818359 29,31.7773438 26.1679688,31.5791016 L26.1679688,47.7641602 C32.9082031,50.0864258 37.4394531,52.1396484 39.7617188,53.9238281 C43.5849609,56.8974609 45.496582,61.0888672 45.496582,66.4980469 C45.496582,73.6347656 42.8769531,78.8173828 37.6376953,82.0458984 C34.4375,84.0283203 30.6425781,85.1894531 26.2529297,85.5292969 L26.2529297,94.0678711 L22.1323242,94.0678711 L22.1323242,85.6142578 C16.5532227,84.9912109 12.3901367,83.7734375 9.64306641,81.9609375 C4.80029297,78.7041016 2.42138672,73.1533203 2.50634766,65.3085938 L13.9760742,65.3085938 C14.3725586,68.8769531 14.9248047,71.2700195 15.6328125,72.487793 C16.7373047,74.3852539 18.9038086,75.6171875 22.1323242,76.1835938 L22.1323242,58.0444336 L18.6914062,57.0249023 Z M26.1679688,59.4462891 L26.1679688,76.0561523 C28.4052734,75.7729492 30.0336914,75.2631836 31.0532227,74.5268555 C32.8374023,73.2241211 33.7294922,70.9726562 33.7294922,67.7724609 C33.7294922,65.3369141 32.894043,63.4111328 31.2231445,61.9951172 C30.2319336,61.1738281 28.546875,60.3242188 26.1679688,59.4462891 Z M22.1323242,46.574707 L22.1323242,31.6640625 C19.668457,31.7207031 17.8417969,32.3791504 16.6523438,33.6394043 C15.4628906,34.8996582 14.8681641,36.6201172 14.8681641,38.8007812 C14.8681641,41.1796875 15.7602539,43.0629883 17.5444336,44.4506836 C18.5356445,45.215332 20.0649414,45.9233398 22.1323242,46.574707 Z" id="Shape"></path>
                </g>
                <g id="+" transform="translate(119, -17)" fill="#93C300" fill-rule="nonzero">
                    <polygon id="Path" points="31.6904297 66.4980469 31.6904297 84 20.5180664 84 20.5180664 66.4980469 3.10107422 66.4980469 3.10107422 55.4106445 20.5180664 55.4106445 20.5180664 37.9936523 31.6904297 37.9936523 31.6904297 55.4106445 49.1074219 55.4106445 49.1074219 66.4980469"></polygon>
                </g>
                <g id="+-copy" transform="translate(-3, -37)" fill="#93C300" fill-rule="nonzero">
                    <polygon id="Path" points="31.6904297 66.4980469 31.6904297 84 20.5180664 84 20.5180664 66.4980469 3.10107422 66.4980469 3.10107422 55.4106445 20.5180664 55.4106445 20.5180664 37.9936523 31.6904297 37.9936523 31.6904297 55.4106445 49.1074219 55.4106445 49.1074219 66.4980469"></polygon>
                </g>
            </g>
        </g>
    </g>
</svg>