<?xml version="1.0" encoding="UTF-8"?>
<svg width="227px" height="61px" viewBox="0 0 227 61" version="1.1" xmlns="http://www.w3.org/2000/svg" xmlns:xlink="http://www.w3.org/1999/xlink">
    <title>WWW</title>
    <g id="Page-1" stroke="none" stroke-width="1" fill="none" fill-rule="evenodd">
        <g id="Landing-Page" transform="translate(-141, -1014)" fill="#5A4C4C">
            <g id="WWW" transform="translate(140, 993)">
                <polygon id="Path" fill-rule="nonzero" points="65.2148438 21.5429688 78.0527344 21.5429688 61.03125 82 48.9726562 82 41.671875 46.6445312 39.5390625 34.9550781 37.40625 46.6445312 30.1054688 82 18.375 82 1.23046875 21.5429688 14.6425781 21.5429688 22.640625 56.1601562 24.3632812 65.7988281 26.1269531 56.3652344 32.9355469 21.5429688 46.265625 21.5429688 53.4433594 56.1601562 55.2890625 65.7988281 57.1347656 56.5292969"></polygon>
                <polygon id="Path" fill-rule="nonzero" points="140.029962 21.5429688 152.867852 21.5429688 135.846368 82 123.787774 82 116.486993 46.6445312 114.354181 34.9550781 112.221368 46.6445312 104.920587 82 93.190118 82 76.0455868 21.5429688 89.4576961 21.5429688 97.455743 56.1601562 99.1783993 65.7988281 100.942071 56.3652344 107.750665 21.5429688 121.080743 21.5429688 128.258477 56.1601562 130.104181 65.7988281 131.949884 56.5292969"></polygon>
                <polygon id="Path" fill-rule="nonzero" points="214.84508 21.5429688 227.68297 21.5429688 210.661486 82 198.602892 82 191.302111 46.6445312 189.169299 34.9550781 187.036486 46.6445312 179.735705 82 168.005236 82 150.860705 21.5429688 164.272814 21.5429688 172.270861 56.1601562 173.993517 65.7988281 175.757189 56.3652344 182.565783 21.5429688 195.895861 21.5429688 203.073595 56.1601562 204.919299 65.7988281 206.765002 56.5292969"></polygon>
            </g>
        </g>
    </g>
</svg>